#!OML:ASF H:\MichaelJackson\Top Level 1\Subject 1\Session 1\male.ASF
:FULLY-SPECIFIED
:DEGREES
74
root 10.7486 16.472 -29.8528 13.1952 -20.6175 -3.40987
lowerback -0.704048 2.83993 0.907927
upperback -0.269068 3.77943 0.636803
thorax 0.134152 1.88955 0.175037
lowerneck -7.20746 0.536301 0.71885
upperneck -0.334827 0.637884 0.640994
head 1.09837 0.328894 0.0973538
rclavicle 4.28629e-016 1.32937e-014
rhumerus -31.4124 12.6643 -92.91
rradius 43.8624
rwrist 8.78296
rhand -25.7025 -25.7997
rfingers 7.12502
rthumb 0.833049 -55.7778
lclavicle 4.28629e-016 1.32937e-014
lhumerus -42.6428 -6.10626 95.1731
lradius 44.9913
lwrist 21.9185
lhand -6.8941 15.5388
lfingers 7.12502
lthumb 18.9727 44.6335
rfemur -5.28966 -3.47731 26.0457
rtibia 23.2669
rfoot -26.1163 -19.3177
rtoes 7.28819
lfemur -49.3848 5.06908 -22.6897
ltibia 34.1549
lfoot -13.8239 -3.21666
ltoes 15.6367
75
root 10.6942 16.4591 -29.7646 13.2004 -20.725 -3.52158
lowerback -0.619145 2.91526 0.850045
upperback -0.225261 3.88096 0.641181
thorax 0.127735 1.94039 0.209186
lowerneck -7.17466 0.548144 0.789853
upperneck -0.555129 0.64993 0.620455
head 1.02292 0.333312 0.0789366
rclavicle 6.563e-014 7.05686e-015
rhumerus -31.2012 12.793 -93.0833
rradius 44.0191
rwrist 8.66169
rhand -25.7561 -25.5413
rfingers 7.12502
rthumb 0.781292 -55.5196
lclavicle 6.563e-014 7.05686e-015
lhumerus -42.6352 -6.31384 95.2165
lradius 45.0549
lwrist 21.9368
lhand -7.03524 15.3559
lfingers 7.12502
lthumb 18.8369 44.4638
rfemur -4.60188 -3.62019 26.1517
rtibia 22.7252
rfoot -26.0882 -19.0809
rtoes 7.36985
lfemur -49.6537 4.89904 -22.288
ltibia 33.5334
lfoot -13.725 -2.56956
ltoes 16.0998
76
root 10.6402 16.4448 -29.6738 13.2061 -20.8293 -3.65302
lowerback -0.533154 2.9879 0.819536
upperback -0.177442 3.9786 0.648347
thorax 0.126263 1.98927 0.230858
lowerneck -7.14559 0.561256 0.853096
upperneck -0.760184 0.664031 0.611731
head 0.953103 0.338971 0.0656112
rclavicle 1.9734e-014 1.30142e-014
rhumerus -30.9905 12.9394 -93.2596
rradius 44.1653
rwrist 8.54834
rhand -25.8045 -25.2337
rfingers 7.12502
rthumb 0.734595 -55.2122
lclavicle 1.9734e-014 1.30142e-014
lhumerus -42.6233 -6.49709 95.2464
lradius 45.1288
lwrist 21.9361
lhand -7.15723 15.1736
lfingers 7.12502
lthumb 18.7196 44.2928
rfemur -3.90263 -3.79861 26.2615
rtibia 22.1857
rfoot -26.0367 -18.8143
rtoes 7.39441
lfemur -49.9118 4.75192 -21.8673
ltibia 32.9101
lfoot -13.641 -1.86582
ltoes 16.5822
77
root 10.5864 16.4289 -29.5801 13.2152 -20.9328 -3.80352
lowerback -0.450482 3.05741 0.816697
upperback -0.127579 4.0718 0.658042
thorax 0.130354 2.03592 0.239852
lowerneck -7.11497 0.574812 0.901052
upperneck -0.948524 0.67971 0.62035
head 0.888387 0.345732 0.060266
rclavicle 2.32594e-014 -2.30777e-015
rhumerus -30.7788 13.0967 -93.4355
rradius 44.3031
rwrist 8.47499
rhand -25.8104 -24.9319
rfingers 7.12502
rthumb 0.728827 -54.9104
lclavicle 2.32594e-014 -2.30777e-015
lhumerus -42.6124 -6.64052 95.2565
lradius 45.2155
lwrist 21.9215
lhand -7.2397 14.9961
lfingers 7.12502
lthumb 18.6403 44.123
rfemur -3.19789 -4.00342 26.3751
rtibia 21.6574
rfoot -25.9645 -18.5344
rtoes 7.31915
lfemur -50.1572 4.62429 -21.4275
ltibia 32.2834
lfoot -13.605 -1.09794
ltoes 16.954
78
root 10.5326 16.4113 -29.4832 13.2232 -21.0499 -3.9717
lowerback -0.368911 3.12699 0.836498
upperback -0.0757521 4.16494 0.668546
thorax 0.138589 2.08254 0.237143
lowerneck -7.063 0.591722 0.921375
upperneck -1.13973 0.702085 0.662197
head 0.819078 0.356277 0.0698208
rclavicle -2.08538e-014 -5.11871e-015
rhumerus -30.5697 13.2607 -93.6126
rradius 44.4446
rwrist 8.46743
rhand -25.6924 -24.7395
rfingers 7.12502
rthumb 0.84285 -54.7176
lclavicle -2.08538e-014 -5.11871e-015
lhumerus -42.6071 -6.74196 95.2439
lradius 45.3142
lwrist 21.9021
lhand -7.28831 14.7892
lfingers 7.12502
lthumb 18.5935 43.9206
rfemur -2.48224 -4.1891 26.4925
rtibia 21.1453
rfoot -25.8846 -18.2648
rtoes 7.19027
lfemur -50.3796 4.51862 -20.9664
ltibia 31.6549
lfoot -13.6449 -0.252634
ltoes 17.1501
79
root 10.4788 16.3919 -29.3831 13.2349 -21.1743 -4.14829
lowerback -0.290334 3.19402 0.867727
upperback -0.0287795 4.25465 0.678541
thorax 0.144427 2.12744 0.227456
lowerneck -6.98763 0.612387 0.913828
upperneck -1.33264 0.731854 0.736332
head 0.745236 0.370914 0.0939408
rclavicle 1.2511e-014 5.98839e-015
rhumerus -30.3756 13.4383 -93.7963
rradius 44.5761
rwrist 8.46232
rhand -25.5674 -24.5415
rfingers 7.12502
rthumb 0.963582 -54.519
lclavicle 1.2511e-014 5.98839e-015
lhumerus -42.6136 -6.79988 95.2103
lradius 45.4217
lwrist 21.883
lhand -7.303 14.6234
lfingers 7.12502
lthumb 18.5794 43.7561
rfemur -1.76681 -4.37724 26.6061
rtibia 20.6573
rfoot -25.8014 -18.0121
rtoes 6.92902
lfemur -50.591 4.43585 -20.5013
ltibia 31.0284
lfoot -13.7586 0.662301
ltoes 17.0873
80
root 10.4246 16.3709 -29.2796 13.2464 -21.3165 -4.32276
lowerback -0.219854 3.26076 0.897607
upperback 0.0132106 4.34398 0.684021
thorax 0.150015 2.17215 0.214131
lowerneck -6.90738 0.633951 0.902591
upperneck -1.50553 0.763224 0.816452
head 0.677026 0.386449 0.120448
rclavicle 3.59924e-014 -2.43511e-015
rhumerus -30.1982 13.63 -93.9888
rradius 44.7043
rwrist 8.45865
rhand -25.4164 -24.3852
rfingers 7.12502
rthumb 1.10937 -54.3621
lclavicle 3.59924e-014 -2.43511e-015
lhumerus -42.6375 -6.82411 95.1584
lradius 45.5396
lwrist 21.8822
lhand -7.30612 14.4733
lfingers 7.12502
lthumb 18.5764 43.6063
rfemur -1.04707 -4.55842 26.7034
rtibia 20.1911
rfoot -25.7151 -17.7848
rtoes 6.47748
lfemur -50.7787 4.34355 -20.0124
ltibia 30.4076
lfoot -13.9551 1.67109
ltoes 16.8485
81
root 10.37 16.3479 -29.1729 13.264 -21.4703 -4.48807
lowerback -0.162703 3.32563 0.91843
upperback 0.0458162 4.43081 0.683449
thorax 0.153315 2.2156 0.200038
lowerneck -6.82838 0.6565 0.891308
upperneck -1.65035 0.79588 0.899283
head 0.617984 0.402741 0.14778
rclavicle 4.6118e-014 1.09829e-014
rhumerus -30.043 13.8348 -94.1902
rradius 44.8298
rwrist 8.4402
rhand -25.2562 -24.2413
rfingers 7.12502
rthumb 1.26414 -54.2173
lclavicle 4.6118e-014 1.09829e-014
lhumerus -42.6804 -6.83089 95.0947
lradius 45.6645
lwrist 21.9135
lhand -7.31525 14.4009
lfingers 7.12502
lthumb 18.5676 43.5348
rfemur -0.332568 -4.70362 26.7853
rtibia 19.7472
rfoot -25.6217 -17.6189
rtoes 5.80593
lfemur -50.9355 4.2352 -19.5091
ltibia 29.7973
lfoot -14.2126 2.76454
ltoes 16.3943
82
root 10.3151 16.3238 -29.0626 13.2893 -21.6362 -4.64189
lowerback -0.127079 3.39092 0.928388
upperback 0.0702308 4.51805 0.676037
thorax 0.160051 2.25927 0.186004
lowerneck -6.75823 0.678577 0.890874
upperneck -1.76339 0.826962 0.970733
head 0.570568 0.4182 0.169831
rclavicle 5.00689e-014 1.23246e-014
rhumerus -29.9073 14.0438 -94.3944
rradius 44.9575
rwrist 8.42308
rhand -25.0561 -24.1253
rfingers 7.12502
rthumb 1.45737 -54.1
lclavicle 5.00689e-014 1.23246e-014
lhumerus -42.7395 -6.82984 95.0243
lradius 45.7917
lwrist 21.9764
lhand -7.33018 14.3865
lfingers 7.12502
lthumb 18.5532 43.5218
rfemur 0.378807 -4.84749 26.8422
rtibia 19.3173
rfoot -25.5321 -17.4732
rtoes 4.95963
lfemur -51.0864 4.09229 -18.9775
ltibia 29.2033
lfoot -14.4895 3.93868
ltoes 15.8682
